# Blender 4.4.1
# www.blender.org
mtllib candle.mtl
o Cylinder
v 0.000000 0.000000 0.000000
v 0.000000 0.100000 0.000000
v -0.035665 0.000000 -0.011588
v -0.035665 0.100000 -0.011588
v -0.000000 0.000000 -0.037500
v -0.000000 0.100000 -0.037500
v 0.035665 0.000000 -0.011588
v 0.035665 0.100000 -0.011588
v 0.022042 0.000000 0.030338
v 0.022042 0.100000 0.030338
v -0.022042 0.000000 0.030338
v -0.022042 0.100000 0.030338
v -0.008458 0.099983 0.000274
v 0.008458 0.099983 0.000274
v -0.008458 0.132745 0.000274
v 0.008458 0.132745 0.000274
v 0.008458 0.099983 -0.000245
v -0.008458 0.099983 -0.000245
v 0.008458 0.132745 -0.000245
v -0.008458 0.132745 -0.000245
vn -0.0000 -1.0000 -0.0000
vn -0.0000 1.0000 -0.0000
vn -0.5878 -0.0000 -0.8090
vn 0.5878 -0.0000 -0.8090
vn 0.9511 -0.0000 0.3090
vn -0.0000 -0.0000 1.0000
vn -0.9511 -0.0000 0.3090
vn -0.0000 -0.0000 -1.0000
vt 0.859375 0.125000
vt 1.000000 0.125000
vt 0.906250 0.000000
vt 0.843750 0.437500
vt 0.890625 0.265625
vt 1.000000 0.437500
vt 0.000000 0.406250
vt 0.656250 0.406250
vt 0.656250 0.703125
vt 0.000000 0.703125
vt 0.750000 0.046875
vt 0.703125 0.328125
vt 0.656250 1.000000
vt 0.000000 1.000000
vt 0.750000 0.203125
vt 0.703125 0.531250
vt 0.000000 0.109375
vt 0.656250 0.109375
vt 0.906250 0.250000
vt 0.890625 0.593750
vt 0.734375 0.609375
vt 0.937500 0.609375
vt 0.937500 1.000000
vt 0.734375 1.000000
s 0
usemtl Material
f 1/1/1 3/2/1 5/3/1
f 2/4/2 6/5/2 4/6/2
f 3/7/3 4/8/3 6/9/3 5/10/3
f 1/1/1 5/3/1 7/11/1
f 2/4/2 8/12/2 6/5/2
f 5/10/4 6/9/4 8/13/4 7/14/4
f 1/1/1 7/11/1 9/15/1
f 2/4/2 10/16/2 8/12/2
f 7/17/5 8/18/5 10/8/5 9/7/5
f 1/1/1 9/15/1 11/19/1
f 2/4/2 12/20/2 10/16/2
f 9/7/6 10/8/6 12/9/6 11/10/6
f 1/1/1 11/19/1 3/2/1
f 2/4/2 4/6/2 12/20/2
f 11/10/7 12/9/7 4/13/7 3/14/7
f 13/21/6 14/22/6 16/23/6 15/24/6
f 17/21/8 18/22/8 20/23/8 19/24/8
