# Blender 4.4.0
# www.blender.org
o Cube
v -1.000000 -1.000000 1.000000
v -1.000118 1.000000 1.000118
v -1.000000 -1.000000 -1.000000
v -1.000118 1.000000 -1.000118
v 1.000000 -1.000000 1.000000
v 1.000118 1.000000 1.000118
v 1.000000 -1.000000 -1.000000
v 1.000118 1.000000 -1.000118
v -0.231297 1.583547 0.231297
v -0.231297 1.583547 -0.231297
v 0.231297 1.583547 -0.231297
v 0.231297 1.583547 0.231297
vn -1.0000 -0.0001 -0.0000
vn -0.0000 -0.0001 -1.0000
vn 1.0000 -0.0001 -0.0000
vn -0.0000 -0.0001 1.0000
vn -0.0000 -1.0000 -0.0000
vn -0.0000 0.7965 -0.6046
vn -0.0000 1.0000 -0.0000
vn 0.6046 0.7965 -0.0000
vn -0.6046 0.7965 -0.0000
vn -0.0000 0.7965 0.6046
vt 2.009009 -0.003962
vt 2.009187 1.001418
vt 1.003689 1.001536
vt 1.003629 -0.003843
vt -0.001810 1.001536
vt -0.001750 -0.003843
vt -1.007308 1.001417
vt -1.007129 -0.003962
vt 3.014388 -0.004200
vt 3.014686 1.001179
vt -0.001750 -1.009223
vt 1.003630 -1.009223
vt 0.617210 1.486733
vt 0.384669 1.486733
vt 0.617210 1.719274
vt 0.384669 1.719274
vt -0.388346 1.486687
vt -0.620888 1.486659
vt 1.622766 1.486660
vt 1.390225 1.486687
vt 2.628322 1.486467
vt 2.395781 1.486523
s 0
f 1/1/1 2/2/1 4/3/1 3/4/1
f 3/4/2 4/3/2 8/5/2 7/6/2
f 7/6/3 8/5/3 6/7/3 5/8/3
f 5/9/4 6/10/4 2/2/4 1/1/4
f 3/4/5 7/6/5 5/11/5 1/12/5
f 8/5/6 4/3/6 10/13/6 11/14/6
f 11/14/7 10/13/7 9/15/7 12/16/7
f 6/7/8 8/5/8 11/17/8 12/18/8
f 4/3/9 2/2/9 9/19/9 10/20/9
f 2/2/10 6/10/10 12/21/10 9/22/10
