# Blender 4.4.1
# www.blender.org
o Cylinder.001
v 0.070711 0.000000 -0.070711
v 0.014704 0.389284 -0.014704
v 0.100000 0.000000 0.000000
v 0.020795 0.389284 0.000000
v 0.070711 0.000000 0.070711
v 0.014704 0.389284 0.014704
v 0.000000 0.000000 0.100000
v 0.000000 0.389284 0.020795
v -0.070711 0.000000 0.070711
v -0.014704 0.389284 0.014704
v -0.100000 0.000000 0.000000
v -0.020795 0.389284 0.000000
v -0.070711 0.000000 -0.070711
v -0.014704 0.389284 -0.014704
v 0.000000 0.000000 -0.100000
v 0.000000 0.389284 -0.020795
v 0.070711 0.213889 -0.070711
v 0.100000 0.213889 0.000000
v 0.070711 0.213889 0.070711
v 0.000000 0.213889 0.100000
v -0.070711 0.213889 0.070711
v -0.100000 0.213889 0.000000
v -0.070711 0.213889 -0.070711
v 0.000000 0.213889 -0.100000
v 0.000000 0.389284 0.000000
v -0.035604 0.389295 0.001000
v 0.035604 0.389295 0.001000
v -0.035604 0.460503 0.001000
v 0.035604 0.460503 0.001000
v 0.035604 0.389295 -0.001000
v -0.035604 0.389295 -0.001000
v 0.035604 0.460503 -0.001000
v -0.035604 0.460503 -0.001000
vn 0.8526 0.3850 -0.3532
vn 0.8526 0.3850 0.3532
vn 0.3532 0.3850 0.8526
vn -0.3532 0.3850 0.8526
vn -0.8526 0.3850 0.3532
vn -0.8526 0.3850 -0.3532
vn -0.0000 1.0000 -0.0000
vn -0.3532 0.3850 -0.8526
vn 0.3532 0.3850 -0.8526
vn -0.0000 -1.0000 -0.0000
vn 0.3827 -0.0000 -0.9239
vn -0.3827 -0.0000 -0.9239
vn -0.9239 -0.0000 -0.3827
vn -0.9239 -0.0000 0.3827
vn -0.3827 -0.0000 0.9239
vn 0.3827 -0.0000 0.9239
vn 0.9239 -0.0000 0.3827
vn 0.9239 -0.0000 -0.3827
vn -0.0000 -0.0000 1.0000
vn -0.0000 -0.0000 -1.0000
vt 0.000000 0.218750
vt 0.468750 0.171875
vt 0.468750 0.343750
vt 0.000000 0.171875
vt 0.468750 -0.000000
vt 0.593750 0.000000
vt 0.640625 0.468750
vt 0.468750 0.468750
vt 0.640625 0.000000
vt 0.812500 0.468750
vt 0.765625 0.015625
vt 0.796875 0.078125
vt 0.828125 0.015625
vt 0.890625 0.015625
vt 0.968750 0.046875
vt 0.937500 0.125000
vt 0.000000 0.515625
vt 0.453125 0.343750
vt 0.453125 0.515625
vt -0.000000 0.671875
vt 0.453125 0.671875
vt -0.000000 0.843750
vt 0.453125 0.843750
vt -0.000000 1.000000
vt 0.453125 1.000000
vt 0.859375 0.046875
vt 0.859375 0.093750
vt 0.828125 0.140625
vt 0.765625 0.140625
vt 0.734375 0.093750
vt 0.734375 0.046875
vt 1.000000 0.593750
vt 0.593750 1.000000
vt 0.593750 0.593750
vt 0.000000 0.125000
vt 0.687500 0.000000
vt 0.890625 0.125000
vt 0.937500 0.015625
vt 0.968750 0.093750
vt -0.000000 0.343750
vt 1.000000 1.000000
s 0
f 2/1/1 18/2/1 17/3/1
f 4/4/2 19/5/2 18/2/2
f 6/1/3 20/2/3 19/3/3
f 8/4/4 21/5/4 20/2/4
f 10/6/5 22/7/5 21/8/5
f 12/9/6 23/10/6 22/7/6
f 10/11/7 25/12/7 12/13/7
f 14/6/8 24/7/8 23/8/8
f 16/9/9 17/10/9 24/7/9
f 7/14/10 11/15/10 15/16/10
f 24/17/11 1/18/11 15/19/11
f 23/20/12 15/19/12 13/21/12
f 22/22/13 13/21/13 11/23/13
f 21/24/14 11/23/14 9/25/14
f 20/17/15 9/18/15 7/19/15
f 19/20/16 7/19/16 5/21/16
f 18/22/17 5/21/17 3/23/17
f 17/24/18 3/23/18 1/25/18
f 12/13/7 25/12/7 14/26/7
f 14/26/7 25/12/7 16/27/7
f 16/27/7 25/12/7 2/28/7
f 2/28/7 25/12/7 4/29/7
f 4/29/7 25/12/7 6/30/7
f 6/30/7 25/12/7 8/31/7
f 8/31/7 25/12/7 10/11/7
f 27/32/19 28/33/19 26/34/19
f 31/32/20 32/33/20 30/34/20
f 2/1/1 4/4/1 18/2/1
f 4/4/2 6/35/2 19/5/2
f 6/1/3 8/4/3 20/2/3
f 8/4/4 10/35/4 21/5/4
f 10/6/5 12/9/5 22/7/5
f 12/9/6 14/36/6 23/10/6
f 14/6/8 16/9/8 24/7/8
f 16/9/9 2/36/9 17/10/9
f 15/16/10 1/37/10 3/27/10
f 3/27/10 5/26/10 7/14/10
f 7/14/10 9/38/10 11/15/10
f 11/15/10 13/39/10 15/16/10
f 15/16/10 3/27/10 7/14/10
f 24/17/11 17/40/11 1/18/11
f 23/20/12 24/17/12 15/19/12
f 22/22/13 23/20/13 13/21/13
f 21/24/14 22/22/14 11/23/14
f 20/17/15 21/40/15 9/18/15
f 19/20/16 20/17/16 7/19/16
f 18/22/17 19/20/17 5/21/17
f 17/24/18 18/22/18 3/23/18
f 27/32/19 29/41/19 28/33/19
f 31/32/20 33/41/20 32/33/20
