# Blender 4.4.0
# www.blender.org
mtllib mug.mtl
o Cylinder
v 0.000000 0.000000 0.000000
v 0.000000 0.222179 0.000000
v 0.000000 0.000000 -0.075000
v 0.000000 0.222179 -0.075000
v 0.064952 0.000000 -0.037500
v 0.064952 0.222179 -0.037500
v 0.064952 0.000000 0.037500
v 0.064952 0.222179 0.037500
v 0.000000 0.000000 0.075000
v 0.000000 0.222179 0.075000
v -0.064952 0.000000 0.037500
v -0.064952 0.222179 0.037500
v -0.064952 0.000000 -0.037500
v -0.064952 0.222179 -0.037500
v -0.119950 0.063471 0.010666
v -0.128362 0.183215 0.010666
v -0.119950 0.063471 -0.010666
v -0.128362 0.183215 -0.010666
v -0.063476 0.038013 0.010666
v -0.063476 0.178489 0.010666
v -0.063476 0.038013 -0.010666
v -0.063476 0.178489 -0.010666
v -0.098808 0.053941 -0.010666
v -0.105360 0.192577 -0.010666
v -0.098808 0.053941 0.010666
v -0.105360 0.192577 0.010666
vn -0.0000 -1.0000 -0.0000
vn -0.0000 1.0000 -0.0000
vn 0.5000 -0.0000 -0.8660
vn 1.0000 -0.0000 -0.0000
vn 0.5000 -0.0000 0.8660
vn -0.5000 -0.0000 0.8660
vn -1.0000 -0.0000 -0.0000
vn -0.5000 -0.0000 -0.8660
vn -0.9975 -0.0701 -0.0000
vn -0.0000 -0.0000 -1.0000
vn -0.0000 -0.0000 1.0000
vn -0.4110 -0.9116 -0.0000
vn -0.3770 0.9262 -0.0000
vn 0.3188 0.9478 -0.0000
vt 0.656250 0.125000
vt 0.578125 0.000000
vt 0.500000 0.125000
vt 0.984375 0.171875
vt 0.828125 0.312500
vt 0.828125 0.171875
vt 0.000000 0.000000
vt 0.500000 0.000000
vt 0.500000 0.171875
vt 0.000000 0.171875
vt 0.578125 0.250000
vt 0.984375 0.312500
vt 0.500000 0.328125
vt 0.000000 0.328125
vt 0.734375 0.250000
vt 0.828125 0.468750
vt 0.500000 0.515625
vt 0.000000 0.515625
vt 0.812500 0.125000
vt 0.984375 0.468750
vt 0.500000 0.671875
vt 0.000000 0.671875
vt 0.734375 0.000000
vt 0.828125 0.000000
vt 0.984375 0.000000
vt 0.500000 0.843750
vt 0.000000 0.843750
vt 0.500000 1.000000
vt 0.000000 1.000000
vt 0.718750 0.828125
vt 0.718750 0.484375
vt 0.781250 0.484375
vt 0.781250 0.828125
vt 0.843750 0.765625
vt 0.843750 0.484375
vt 0.937500 0.484375
vt 0.937500 0.765625
vt 0.656250 0.765625
vt 0.656250 0.484375
vt 0.718750 0.734375
vt 0.781250 0.890625
vt 0.781250 1.000000
vt 0.718750 1.000000
vt 0.718750 0.890625
vt 0.781250 0.406250
vt 0.718750 0.406250
vt 0.781250 0.265625
vt 0.718750 0.265625
vt 0.562500 0.765625
vt 0.562500 0.484375
vt 0.781250 0.734375
s 0
usemtl Material
f 1/1/1 3/2/1 5/3/1
f 2/4/2 6/5/2 4/6/2
f 3/7/3 4/8/3 6/9/3 5/10/3
f 1/1/1 5/3/1 7/11/1
f 2/4/2 8/12/2 6/5/2
f 5/10/4 6/9/4 8/13/4 7/14/4
f 1/1/1 7/11/1 9/15/1
f 2/12/2 10/16/2 8/5/2
f 7/14/5 8/13/5 10/17/5 9/18/5
f 1/1/1 9/15/1 11/19/1
f 2/12/2 12/20/2 10/16/2
f 9/18/6 10/17/6 12/21/6 11/22/6
f 1/1/1 11/19/1 13/23/1
f 2/4/2 14/24/2 12/25/2
f 11/22/7 12/21/7 14/26/7 13/27/7
f 1/1/1 13/23/1 3/2/1
f 2/4/2 4/6/2 14/24/2
f 13/27/8 14/26/8 4/28/8 3/29/8
f 15/30/9 16/31/9 18/32/9 17/33/9
f 23/34/10 24/35/10 22/36/10 21/37/10
f 25/38/11 26/39/11 16/31/11 15/40/11
f 23/41/12 21/42/12 19/43/12 25/44/12
f 24/45/13 18/32/13 16/31/13 26/46/13
f 22/47/14 24/45/14 26/46/14 20/48/14
f 17/33/12 23/41/12 25/44/12 15/30/12
f 19/49/11 20/50/11 26/39/11 25/38/11
f 17/51/10 18/32/10 24/35/10 23/34/10
